<svg width="24" height="24" viewBox="0 0 24 24" fill="none" xmlns="http://www.w3.org/2000/svg">
<path d="M0 11.9979C0.0013962 17.901 4.29393 22.9272 10.124 23.8523V15.4658H7.07975V11.9979H10.1276V9.35803C9.99139 8.10712 10.4187 6.86042 11.2936 5.95606C12.1685 5.0517 13.4004 4.58341 14.6551 4.67819C15.5557 4.69273 16.4541 4.77294 17.343 4.91818V7.86888H15.8262C15.3041 7.80049 14.7791 7.97294 14.3992 8.33766C14.0193 8.70238 13.8256 9.21989 13.8727 9.74441V11.9979H17.1978L16.6662 15.467H13.8727V23.8523C20.1779 22.8559 24.5993 17.0975 23.9338 10.7489C23.2683 4.40024 17.7489 -0.316122 11.3742 0.0165651C4.99946 0.349253 0.00101334 5.61453 0 11.9979Z" fill="#FFECED"/>
</svg>
