<svg width="20" height="21" viewBox="0 0 20 21" fill="none" xmlns="http://www.w3.org/2000/svg">
<path d="M16.2435 20.0616C15.1615 20.0741 14.1359 19.5797 13.4717 18.7253C12.8076 17.871 12.5815 16.7551 12.8605 15.7096L6.6005 12.1316C5.51878 13.1226 3.93318 13.3324 2.63099 12.6567C1.32879 11.981 0.587374 10.5638 0.774867 9.10881C0.96236 7.65378 2.03883 6.47084 3.46978 6.14735C4.90072 5.82386 6.38136 6.42872 7.1765 7.66161L12.8595 4.4126C12.786 4.13479 12.747 3.84896 12.7435 3.5616C12.7292 1.88832 13.8913 0.434747 15.5267 0.0804273C17.1621 -0.273893 18.8216 0.568349 19.5011 2.09752C20.1806 3.62669 19.6935 5.42283 18.3345 6.39911C16.9754 7.37539 15.1178 7.26369 13.8855 6.13161L7.7345 9.64661C7.72841 9.90593 7.69216 10.1637 7.6265 10.4146L13.8855 13.9916C15.0378 12.9342 16.7523 12.7709 18.0834 13.5919C19.4145 14.4129 20.0381 16.0183 19.6103 17.5226C19.1825 19.0269 17.8074 20.0639 16.2435 20.0616ZM16.2435 15.0616C15.4151 15.0616 14.7435 15.7332 14.7435 16.5616C14.7435 17.39 15.4151 18.0616 16.2435 18.0616C17.0719 18.0616 17.7435 17.39 17.7435 16.5616C17.7435 15.7332 17.0719 15.0616 16.2435 15.0616ZM4.2435 8.06161C3.41507 8.06161 2.7435 8.73318 2.7435 9.56161C2.7435 10.39 3.41507 11.0616 4.2435 11.0616C5.07193 11.0616 5.7435 10.39 5.7435 9.56161C5.7435 8.73318 5.07193 8.06161 4.2435 8.06161ZM16.2435 2.0616C15.4151 2.0616 14.7435 2.73318 14.7435 3.5616C14.7435 4.39003 15.4151 5.0616 16.2435 5.0616C17.0719 5.0616 17.7435 4.39003 17.7435 3.5616C17.7435 2.73318 17.0719 2.0616 16.2435 2.0616Z" fill="#313132"/>
</svg>
