<svg width="15" height="12" viewBox="0 0 15 12" fill="none" xmlns="http://www.w3.org/2000/svg">
<path d="M13.4835 11.4857H0.845943C0.602327 11.4857 0.37722 11.3641 0.255415 11.1666C0.13361 10.9692 0.133612 10.726 0.255419 10.5285L6.57388 0.318484C6.69578 0.121373 6.9207 0 7.16406 0C7.40742 0 7.63234 0.121373 7.75424 0.318484L14.0727 10.5285C14.1945 10.7259 14.1945 10.969 14.0729 11.1664C13.9512 11.3638 13.7264 11.4855 13.4829 11.4857H13.4835ZM7.16509 1.9138L2.02972 10.2095H12.3018L7.16509 1.9138ZM7.84357 7.65759H6.47978V4.46631H7.84357V7.65759Z" fill="#313132"/>
<path d="M6.48319 8.29635H7.84698V9.57261H6.48319V8.29635Z" fill="#313132"/>
</svg>
