<svg width="24" height="17" viewBox="0 0 24 17" fill="none" xmlns="http://www.w3.org/2000/svg">
<path d="M12.0149 16.8005H11.9909C11.9165 16.8005 4.47908 16.7861 2.60263 16.2766C1.57079 15.9986 0.764971 15.1923 0.487581 14.1603C0.150153 12.2567 -0.0127889 10.3263 0.00078273 8.39307C-0.0079351 6.45669 0.159416 4.52352 0.50077 2.61744C0.785783 1.58451 1.58807 0.7745 2.61822 0.479604C4.44311 0 11.6755 0 11.9825 0H12.0077C12.0832 0 19.5398 0.0143881 21.3971 0.523967C22.4268 0.803348 23.231 1.60799 23.5098 2.63782C23.8579 4.54849 24.0214 6.48825 23.9978 8.43024C24.0062 10.3643 23.8384 12.2951 23.4966 14.1987C23.2156 15.2294 22.4093 16.0339 21.3779 16.3125C19.5554 16.7957 12.3218 16.8005 12.0149 16.8005ZM9.61684 4.80203L9.61085 11.9961L15.8601 8.39906L9.61684 4.80203Z" fill="#FFECED"/>
</svg>
