<svg width="20" height="21" viewBox="0 0 20 21" fill="none" xmlns="http://www.w3.org/2000/svg">
<path d="M16.139 20.0616C15.057 20.0741 14.0314 19.5797 13.3673 18.7253C12.7031 17.871 12.477 16.7551 12.756 15.7096L6.49601 12.1316C5.41429 13.1226 3.82869 13.3324 2.52649 12.6567C1.2243 11.981 0.482881 10.5638 0.670375 9.10881C0.857868 7.65378 1.93434 6.47084 3.36528 6.14735C4.79623 5.82386 6.27686 6.42872 7.07201 7.66161L12.755 4.4126C12.6815 4.13479 12.6425 3.84896 12.639 3.5616C12.6247 1.88832 13.7868 0.434747 15.4222 0.0804273C17.0576 -0.273893 18.7171 0.568349 19.3967 2.09752C20.0762 3.62669 19.589 5.42283 18.23 6.39911C16.8709 7.37539 15.0133 7.26369 13.781 6.13161L7.63001 9.64661C7.62392 9.90593 7.58767 10.1637 7.52201 10.4146L13.781 13.9916C14.9333 12.9342 16.6478 12.7709 17.9789 13.5919C19.31 14.4129 19.9336 16.0183 19.5058 17.5226C19.078 19.0269 17.7029 20.0639 16.139 20.0616ZM16.139 15.0616C15.3106 15.0616 14.639 15.7332 14.639 16.5616C14.639 17.39 15.3106 18.0616 16.139 18.0616C16.9674 18.0616 17.639 17.39 17.639 16.5616C17.639 15.7332 16.9674 15.0616 16.139 15.0616ZM4.13901 8.06161C3.31058 8.06161 2.63901 8.73318 2.63901 9.56161C2.63901 10.39 3.31058 11.0616 4.13901 11.0616C4.96743 11.0616 5.63901 10.39 5.63901 9.56161C5.63901 8.73318 4.96743 8.06161 4.13901 8.06161ZM16.139 2.0616C15.3106 2.0616 14.639 2.73318 14.639 3.5616C14.639 4.39003 15.3106 5.0616 16.139 5.0616C16.9674 5.0616 17.639 4.39003 17.639 3.5616C17.639 2.73318 16.9674 2.0616 16.139 2.0616Z" fill="#313132"/>
</svg>
